<svg width="17" height="17" viewBox="0 0 17 17" fill="none" xmlns="http://www.w3.org/2000/svg">
<g clip-path="url(#clip0_1_620)">
<path fill-rule="evenodd" clip-rule="evenodd" d="M8.08995 12.143C4.40895 12.143 1.42395 8.18097 1.42395 8.18097C1.42395 8.18097 4.40895 4.21997 8.09095 4.21997C11.772 4.21997 14.757 8.18197 14.757 8.18197C14.757 8.18197 11.772 12.144 8.09095 12.144L8.08995 12.143ZM4.01195 9.38997C3.5599 9.0172 3.13422 8.61357 2.73795 8.18197C3.04795 7.84397 3.48395 7.40797 4.01195 6.97397C5.15295 6.03697 6.59595 5.21997 8.09195 5.21997C9.58795 5.21997 11.03 6.03697 12.172 6.97397C12.7 7.40797 13.135 7.84397 13.446 8.18197C13.135 8.51997 12.7 8.95597 12.171 9.38997C11.03 10.327 9.58795 11.144 8.09095 11.144C6.59595 11.144 5.15295 10.327 4.01195 9.38997ZM9.35495 7.76797C9.58595 7.76797 9.79495 7.67497 9.94795 7.52497C10.0968 7.9438 10.0989 8.4008 9.95391 8.82098C9.80888 9.24116 9.52533 9.59956 9.1498 9.83737C8.77426 10.0752 8.32904 10.1783 7.88719 10.1298C7.44534 10.0812 7.03311 9.88396 6.71814 9.5703C6.40317 9.25665 6.20417 8.84525 6.1538 8.40361C6.10342 7.96197 6.20466 7.51632 6.4409 7.13979C6.67715 6.76326 7.03436 6.47822 7.45393 6.33143C7.8735 6.18464 8.3305 6.18484 8.74995 6.33197C8.63386 6.45072 8.55538 6.60108 8.52434 6.76423C8.4933 6.92737 8.51108 7.09604 8.57546 7.24913C8.63983 7.40221 8.74793 7.53291 8.88623 7.62484C9.02453 7.71678 9.18688 7.76587 9.35295 7.76597L9.35495 7.76797Z" fill="#111111"/>
</g>
<defs>
<clipPath id="clip0_1_620">
<rect width="16" height="16" fill="white" transform="translate(0.0899658 0.179932)"/>
</clipPath>
</defs>
</svg>
