<svg width="142" height="39" viewBox="0 0 142 39" fill="none" xmlns="http://www.w3.org/2000/svg">
<g clip-path="url(#clip0_6_1229)">
<path d="M16.6568 3.5L16.0318 6.34725L16.6568 9.47512C22.1846 9.47512 26.6817 13.9722 26.6817 19.5C26.6817 25.0278 22.1846 29.5249 16.6568 29.5249L16.0318 32.0909L16.6568 35.5C25.4934 35.5 32.6568 28.3366 32.6568 19.5C32.6568 10.6634 25.4934 3.5 16.6568 3.5Z" fill="#29CCCC"/>
<path d="M22.6983 19.5C22.6983 16.1634 19.9934 13.4585 16.6568 13.4585L16.0318 19.5L16.6568 25.5415C19.9934 25.5415 22.6983 22.8366 22.6983 19.5Z" fill="#282866"/>
<path d="M6.63186 29.5249V19.5C6.63186 13.9722 11.129 9.47512 16.6567 9.47512V3.5C7.82018 3.5 0.656738 10.6634 0.656738 19.5V35.5H16.6567V29.5249H6.63186Z" fill="#2EE6E6"/>
<path d="M10.6153 19.5C10.6153 22.8366 13.3202 25.5415 16.6568 25.5415V13.4585C13.3202 13.4585 10.6153 16.1634 10.6153 19.5Z" fill="#4A4080"/>
</g>
<path d="M42.3914 31V7.43357H48.0874V17.3987H48.3981L56.1884 7.43357H62.897L54.5429 17.951L63.0466 31H56.2344L50.3658 21.7368L48.0874 24.6136V31H42.3914ZM70.1263 31.2992C68.9986 31.2992 67.9975 31.1112 67.1229 30.7353C66.2561 30.3518 65.5695 29.7764 65.0632 29.0093C64.5645 28.2345 64.3152 27.264 64.3152 26.098C64.3152 25.1161 64.4878 24.2876 64.833 23.6125C65.1782 22.9374 65.6539 22.3889 66.2599 21.967C66.8659 21.545 67.564 21.2267 68.3542 21.0119C69.1443 20.7894 69.9882 20.6398 70.8857 20.5631C71.8907 20.4711 72.7 20.3752 73.3137 20.2754C73.9274 20.168 74.3724 20.0184 74.6485 19.8267C74.9324 19.6272 75.0743 19.3472 75.0743 18.9866V18.9291C75.0743 18.3384 74.871 17.882 74.4644 17.5598C74.0578 17.2376 73.5093 17.0765 72.8189 17.0765C72.0748 17.0765 71.4764 17.2376 71.0238 17.5598C70.5712 17.882 70.2835 18.3269 70.1608 18.8946L64.9711 18.7105C65.1245 17.6365 65.5196 16.6776 66.1563 15.8337C66.8007 14.9822 67.6829 14.3148 68.803 13.8315C69.9306 13.3405 71.2846 13.095 72.8649 13.095C73.9926 13.095 75.0321 13.2293 75.9834 13.4978C76.9346 13.7586 77.7631 14.1422 78.4689 14.6485C79.1746 15.1471 79.7193 15.7608 80.1029 16.4896C80.4941 17.2184 80.6897 18.0507 80.6897 18.9866V31H75.3965V28.5375H75.2584C74.9439 29.1359 74.5411 29.6422 74.0502 30.0564C73.5669 30.4707 72.9954 30.7814 72.3356 30.9885C71.6836 31.1956 70.9471 31.2992 70.1263 31.2992ZM71.8638 27.6169C72.4699 27.6169 73.0145 27.4942 73.4978 27.2487C73.9888 27.0032 74.38 26.6657 74.6715 26.2361C74.9631 25.7988 75.1088 25.2925 75.1088 24.7172V23.0371C74.9477 23.1215 74.7521 23.1982 74.522 23.2673C74.2995 23.3363 74.054 23.4015 73.7855 23.4629C73.517 23.5243 73.2408 23.578 72.957 23.624C72.6732 23.67 72.4008 23.7122 72.14 23.7506C71.6107 23.8349 71.1581 23.9654 70.7822 24.1418C70.4139 24.3182 70.1301 24.5484 69.9306 24.8322C69.7389 25.1084 69.643 25.4383 69.643 25.8218C69.643 26.4049 69.8501 26.8498 70.2643 27.1566C70.6863 27.4635 71.2194 27.6169 71.8638 27.6169ZM84.1303 31V13.3252H89.4811V16.5702H89.6767C90.045 15.4962 90.6663 14.6485 91.5409 14.0271C92.4154 13.4057 93.4587 13.095 94.6708 13.095C95.8982 13.095 96.9492 13.4096 97.8237 14.0386C98.6983 14.6677 99.2544 15.5115 99.4922 16.5702H99.6764C100.006 15.5192 100.651 14.6792 101.61 14.0501C102.568 13.4134 103.7 13.095 105.004 13.095C106.676 13.095 108.034 13.632 109.078 14.706C110.121 15.7723 110.643 17.2376 110.643 19.1017V31H105.016V20.3905C105.016 19.5083 104.789 18.8371 104.337 18.3768C103.884 17.9088 103.297 17.6748 102.576 17.6748C101.801 17.6748 101.191 17.928 100.747 18.4343C100.309 18.9329 100.091 19.6042 100.091 20.448V31H94.6823V20.333C94.6823 19.5121 94.4598 18.8639 94.0149 18.3883C93.57 17.9127 92.9831 17.6748 92.2543 17.6748C91.7633 17.6748 91.3299 17.7937 90.954 18.0316C90.5781 18.2617 90.2828 18.5916 90.068 19.0212C89.8608 19.4508 89.7573 19.9571 89.7573 20.5401V31H84.1303ZM114.129 31V13.3252H119.756V31H114.129ZM116.948 11.2654C116.158 11.2654 115.479 11.0046 114.912 10.4829C114.344 9.95361 114.06 9.31689 114.06 8.57277C114.06 7.83632 114.344 7.20727 114.912 6.68561C115.479 6.15629 116.158 5.89163 116.948 5.89163C117.746 5.89163 118.425 6.15629 118.985 6.68561C119.553 7.20727 119.837 7.83632 119.837 8.57277C119.837 9.31689 119.553 9.95361 118.985 10.4829C118.425 11.0046 117.746 11.2654 116.948 11.2654ZM131.6 31.3337C129.751 31.3337 128.155 30.9693 126.813 30.2405C125.478 29.5041 124.45 28.4569 123.729 27.0991C123.016 25.7336 122.659 24.1111 122.659 22.2316C122.659 20.4058 123.019 18.8102 123.74 17.4447C124.462 16.0715 125.478 15.0052 126.79 14.2457C128.102 13.4786 129.647 13.095 131.427 13.095C132.685 13.095 133.836 13.2907 134.879 13.6819C135.923 14.0731 136.824 14.6523 137.583 15.4195C138.343 16.1866 138.934 17.134 139.356 18.2617C139.777 19.3817 139.988 20.6667 139.988 22.1166V23.5204H124.627V20.2524H134.753C134.745 19.6541 134.603 19.1209 134.327 18.6529C134.051 18.185 133.671 17.8206 133.188 17.5598C132.712 17.2913 132.164 17.157 131.542 17.157C130.913 17.157 130.349 17.2989 129.851 17.5828C129.352 17.859 128.957 18.2387 128.665 18.722C128.374 19.1976 128.221 19.7384 128.205 20.3445V23.67C128.205 24.3911 128.347 25.024 128.631 25.5687C128.915 26.1057 129.318 26.5238 129.839 26.8229C130.361 27.1221 130.982 27.2717 131.703 27.2717C132.202 27.2717 132.655 27.2027 133.061 27.0646C133.468 26.9265 133.817 26.7232 134.108 26.4547C134.4 26.1862 134.618 25.8564 134.764 25.4651L139.931 25.6147C139.716 26.7731 139.244 27.7819 138.516 28.6411C137.794 29.4926 136.847 30.1561 135.673 30.6318C134.5 31.0997 133.142 31.3337 131.6 31.3337Z" fill="#474747"/>
<defs>
<clipPath id="clip0_6_1229">
<rect width="32" height="32" fill="white" transform="translate(0.656738 3.5)"/>
</clipPath>
</defs>
</svg>
